<svg id="Layer_1" data-name="Layer 1" xmlns="http://www.w3.org/2000/svg" viewBox="0 0 566.93 566.93"><path d="M106.22,285.33c-.28,19.73-14.12,34.48-32.18,38.11a43.87,43.87,0,0,1-8.78.88,42.87,42.87,0,0,1-5.18-.32c-21.44-2.64-40.94-21.21-42.58-43.1-1.62-10.39,1.62-24.25,7.28-33,7-12.63,22.39-25,36.44-29.75A63.66,63.66,0,0,1,74,214.59v22.47c-20.42,4.1-39.5,20.28-38.41,42.7,2,15.77,12.13,25.87,27.1,28.75.92.16,1.84.31,2.79.43a5.48,5.48,0,0,1,.57.05,28.37,28.37,0,0,0,8-1c10.63-2.89,19.47-11.72,19.28-23.66-.19-11.59-7.8-20.55-19.28-20.88a23.56,23.56,0,0,0-3.62.17h-.13c-9,2.38-13.76,9.4-12.63,18.05,1.45,4.94,3.36,7.1,8.09,9.18h0c3.31.82,6,.73,8.28-.41a11,11,0,0,0,4.71-5.17c1.39-5.3-.11-8.88-4.71-10.28v-6.46c9.22.89,13.54,7.83,12.3,17.14-.82,6.17-6.84,11.09-12.3,12.91a18.86,18.86,0,0,1-9.62.13c-7.37-1.5-14.16-6.76-16-16.61-1.13-6,1.18-14.82,4.83-19.1,3.22-5.06,11.5-9.86,17.44-10.28.57-.1,1.13-.21,1.68-.28s1.14-.15,1.71-.19C91.63,250.77,106.5,266.33,106.22,285.33Z"/><polygon points="151.69 321.49 177.29 262.55 195.98 321.49 200.95 321.53 236.98 236.66 226.29 236.66 205.76 298.22 185.29 236.66 180.05 236.66 156.37 298.23 136.47 236.66 119.63 236.66 146.55 321.49 151.69 321.49"/><rect x="465.74" y="236.7" width="15.55" height="84.83"/><path d="M396.83,312.41c-2.19,3.1-11.33,7.81-11.33-2V256.6h11.33l0-5.1-11.31.24V236.41L362.09,256.6H370v51.18c0,8.86,5.27,13.62,14.85,13.75a27.32,27.32,0,0,0,12-3Z"/><path d="M460.62,251,415.51,352.34l-8-6.92c2.24-2.59,8.3-8.71,17.41-23.67L403.06,251h16.81l14.28,46.92L450,251Z"/><path d="M288.86,301.44C270.71,327.82,245,315.44,245,286h43.86V284.7c-.1-3.46-1.54-33.69-30.16-33.69C241.92,251,228,266.6,228,286c0,23.55,16.54,35.51,32.36,35.52,1.71,0,18.13,1.66,28.49-13.59Zm-30.37-45.29c8.35,0,12.55,12,13.29,23L245,281C246,269.51,250.05,256.15,258.49,256.15Z"/><path d="M549.85,301.44C531.7,327.82,506,315.44,506,286h43.86V284.7c-.1-3.46-1.54-33.69-30.16-33.69C502.91,251,489,266.6,489,286c0,23.55,16.54,35.51,32.36,35.52,1.71,0,18.13,1.66,28.49-13.59Zm-30.37-45.29c8.35,0,12.55,12,13.29,23L506,281C507,269.51,511,256.15,519.48,256.15Z"/><path d="M332.31,270.61l-.78-.37c-8-3.86-15.15-8.38-14.62-16.46.33-4.94,4.38-11.52,14.91-11.85A20.67,20.67,0,0,1,351.3,254l7.45-6.52c-2.59-2.4-12.37-10-27.69-11.1-22-1.62-28.75,12.11-29.38,16.66-1.91,14.25,7.52,22.29,17.66,28,.21.1.41.23.62.34,12.65,7,27.52,10.57,27.49,18.19,0,13.8-9.45,17-17.06,16.78-18.05-.46-22-16-23.07-23.92l-12.51,10.91c1.91,1.88,18.88,18.16,35.16,18.16,29.85,0,32.76-15.77,33.08-22.55C363.84,281.89,345.83,277,332.31,270.61Z"/></svg>